<?xml version="1.0" encoding="UTF-8"?>
<svg id="Layer_1" data-name="Layer 1" xmlns="http://www.w3.org/2000/svg" version="1.1" viewBox="0 0 260 260">
  <defs>
    <style>
      .cls-1 {
        fill: #000;
        stroke-width: 0px;
      }
    </style>
  </defs>
  <path class="cls-1" d="M210,43.5c3.5,0,6.5-2.9,6.5-6.5V15.4c0-3.5-2.9-6.5-6.5-6.5H50c-3.5,0-6.5,2.9-6.5,6.5v24.2c0,3.5,2.9,6.5,6.5,6.5h46.1c14.8,0,26.1,5.4,32.9,14.8H50c-3.5,0-6.5,2.9-6.5,6.5v21.7c0,3.5,2.9,6.5,6.5,6.5h85.9c-3.3,19.6-17.9,31.7-40.4,31.7h-45.4c-3.5,0-6.5,2.9-6.5,6.5v28.8c0,1.9.8,3.5,2.1,4.8l89.2,82.3c1.3,1,2.7,1.7,4.4,1.7h44.6c5.8,0,8.8-7.3,4.4-11.3l-81.5-75.3c41.3-1.3,70.9-29,74.8-69.2h28.6c3.5,0,6.5-2.9,6.5-6.5v-21.7c0-3.5-2.9-6.5-6.5-6.5h-31.7c-1.9-6.3-4.4-12.1-7.7-17.3,0,0,39.4,0,39.4,0Z"/>
</svg>